<svg xmlns="http://www.w3.org/2000/svg" xmlns:xlink="http://www.w3.org/1999/xlink" width="500" zoomAndPan="magnify" viewBox="0 0 375 374.999991" height="500" preserveAspectRatio="xMidYMid meet" version="1.0"><defs><clipPath id="11d2e3b4db"><path d="M 37.5 127 L 130 127 L 130 262 L 37.5 262 Z M 37.5 127 " clip-rule="nonzero"/></clipPath><clipPath id="33a4911a4c"><path d="M 110 128 L 180.75 128 L 180.75 200 L 110 200 Z M 110 128 " clip-rule="nonzero"/></clipPath><clipPath id="4a30a80be8"><path d="M 197.449219 113 L 349.699219 113 L 349.699219 262 L 197.449219 262 Z M 197.449219 113 " clip-rule="nonzero"/></clipPath></defs><path fill="#f4a261" d="M 72.359375 235.039062 C 72.796875 235.039062 73.222656 235.125 73.628906 235.292969 C 74.035156 235.460938 74.394531 235.699219 74.707031 236.011719 C 75.015625 236.324219 75.257812 236.683594 75.425781 237.089844 C 75.59375 237.496094 75.679688 237.917969 75.679688 238.359375 C 75.679688 238.800781 75.59375 239.222656 75.425781 239.628906 C 75.257812 240.035156 75.015625 240.394531 74.707031 240.707031 C 74.394531 241.019531 74.035156 241.257812 73.628906 241.425781 C 73.222656 241.59375 72.796875 241.679688 72.359375 241.679688 C 70.101562 241.667969 67.929688 241.230469 65.84375 240.367188 C 63.761719 239.507812 61.914062 238.285156 60.308594 236.699219 C 58.710938 235.113281 57.480469 233.285156 56.617188 231.207031 C 55.753906 229.128906 55.324219 226.964844 55.328125 224.714844 L 55.328125 116.570312 C 55.328125 116.132812 55.410156 115.707031 55.582031 115.300781 C 55.75 114.894531 55.988281 114.535156 56.300781 114.222656 C 56.609375 113.914062 56.96875 113.671875 57.375 113.503906 C 57.785156 113.335938 58.207031 113.25 58.648438 113.25 L 139.699219 113.25 C 140.140625 113.25 140.5625 113.335938 140.972656 113.503906 C 141.378906 113.671875 141.738281 113.914062 142.046875 114.222656 C 142.359375 114.535156 142.597656 114.894531 142.769531 115.300781 C 142.9375 115.707031 143.019531 116.132812 143.019531 116.570312 L 143.019531 146.183594 C 143.019531 146.625 142.9375 147.046875 142.769531 147.453125 C 142.597656 147.863281 142.359375 148.21875 142.046875 148.53125 C 141.738281 148.84375 141.378906 149.082031 140.972656 149.25 C 140.5625 149.417969 140.140625 149.503906 139.699219 149.503906 C 139.261719 149.503906 138.835938 149.417969 138.429688 149.25 C 138.023438 149.082031 137.664062 148.84375 137.351562 148.53125 C 137.042969 148.21875 136.800781 147.863281 136.632812 147.453125 C 136.464844 147.046875 136.378906 146.625 136.378906 146.183594 L 136.378906 119.925781 L 62.015625 119.925781 L 62.015625 224.714844 C 62.011719 226.085938 62.269531 227.402344 62.796875 228.664062 C 63.324219 229.929688 64.078125 231.042969 65.054688 232 C 66.019531 232.972656 67.136719 233.722656 68.402344 234.25 C 69.667969 234.777344 70.988281 235.039062 72.359375 235.039062 Z M 136.332031 179.730469 C 136.332031 179.289062 136.414062 178.867188 136.582031 178.460938 C 136.753906 178.054688 136.992188 177.695312 137.304688 177.382812 C 137.613281 177.070312 137.972656 176.832031 138.378906 176.664062 C 138.785156 176.496094 139.210938 176.410156 139.652344 176.410156 C 140.089844 176.410156 140.515625 176.496094 140.921875 176.664062 C 141.328125 176.832031 141.6875 177.070312 142 177.382812 C 142.308594 177.695312 142.550781 178.054688 142.71875 178.460938 C 142.886719 178.867188 142.96875 179.289062 142.96875 179.730469 L 142.96875 204.761719 C 142.96875 205.203125 142.886719 205.625 142.71875 206.03125 C 142.550781 206.441406 142.308594 206.796875 142 207.109375 C 141.6875 207.421875 141.328125 207.660156 140.921875 207.828125 C 140.515625 207.996094 140.089844 208.082031 139.652344 208.082031 C 139.210938 208.082031 138.785156 207.996094 138.378906 207.828125 C 137.972656 207.660156 137.613281 207.421875 137.304688 207.109375 C 136.992188 206.796875 136.753906 206.441406 136.582031 206.03125 C 136.414062 205.625 136.332031 205.203125 136.332031 204.761719 Z M 136.332031 179.730469 " fill-opacity="1" fill-rule="nonzero"/><path fill="#f4a261" d="M 84.027344 211.71875 L 153.363281 211.71875 C 153.800781 211.71875 154.226562 211.800781 154.632812 211.96875 C 155.039062 212.136719 155.398438 212.378906 155.707031 212.691406 C 156.019531 213 156.261719 213.359375 156.429688 213.765625 C 156.597656 214.171875 156.679688 214.597656 156.679688 215.039062 L 156.679688 226.65625 C 156.699219 228.667969 156.328125 230.601562 155.5625 232.460938 C 154.800781 234.320312 153.707031 235.960938 152.28125 237.378906 C 150.871094 238.78125 149.242188 239.863281 147.402344 240.625 C 145.566406 241.386719 143.648438 241.769531 141.660156 241.777344 L 72.359375 241.777344 L 72.359375 235.140625 C 73.460938 235.136719 74.523438 234.921875 75.542969 234.496094 C 76.558594 234.070312 77.457031 233.464844 78.234375 232.683594 L 78.382812 232.53125 C 79.128906 231.765625 79.703125 230.886719 80.105469 229.898438 C 80.507812 228.90625 80.707031 227.875 80.707031 226.804688 L 80.707031 215.1875 C 80.707031 214.746094 80.792969 214.324219 80.960938 213.917969 C 81.128906 213.507812 81.367188 213.152344 81.679688 212.839844 C 81.992188 212.527344 82.351562 212.289062 82.757812 212.121094 C 83.164062 211.949219 83.585938 211.867188 84.027344 211.867188 Z M 150.042969 218.355469 L 87.464844 218.355469 L 87.464844 226.65625 C 87.453125 229.683594 86.597656 232.449219 84.90625 234.957031 L 141.691406 234.957031 C 142.796875 234.949219 143.859375 234.734375 144.882812 234.308594 C 145.902344 233.882812 146.804688 233.28125 147.585938 232.5 C 148.375 231.726562 148.980469 230.828125 149.410156 229.808594 C 149.835938 228.789062 150.046875 227.726562 150.042969 226.625 Z M 150.042969 218.355469 " fill-opacity="1" fill-rule="nonzero"/><g clip-path="url(#11d2e3b4db)"><path fill="#f4a261" d="M 122.800781 247.804688 C 122.800781 247.363281 122.886719 246.941406 123.054688 246.535156 C 123.222656 246.125 123.464844 245.769531 123.773438 245.457031 C 124.085938 245.144531 124.445312 244.90625 124.851562 244.738281 C 125.257812 244.566406 125.683594 244.484375 126.121094 244.484375 C 126.5625 244.484375 126.984375 244.566406 127.394531 244.738281 C 127.800781 244.90625 128.160156 245.144531 128.46875 245.457031 C 128.78125 245.769531 129.019531 246.125 129.191406 246.535156 C 129.359375 246.941406 129.441406 247.363281 129.441406 247.804688 L 129.441406 258.542969 C 129.441406 258.984375 129.359375 259.40625 129.191406 259.8125 C 129.019531 260.21875 128.78125 260.578125 128.46875 260.890625 C 128.160156 261.203125 127.800781 261.441406 127.394531 261.609375 C 126.984375 261.777344 126.5625 261.863281 126.121094 261.863281 L 40.753906 261.863281 C 40.3125 261.863281 39.890625 261.777344 39.484375 261.609375 C 39.078125 261.441406 38.71875 261.203125 38.40625 260.890625 C 38.09375 260.578125 37.855469 260.21875 37.6875 259.8125 C 37.519531 259.40625 37.433594 258.984375 37.433594 258.542969 L 37.433594 131.144531 C 37.433594 130.707031 37.519531 130.28125 37.6875 129.875 C 37.855469 129.46875 38.09375 129.109375 38.40625 128.796875 C 38.71875 128.488281 39.078125 128.246094 39.484375 128.078125 C 39.890625 127.910156 40.3125 127.824219 40.753906 127.824219 L 58.648438 127.824219 C 59.085938 127.824219 59.511719 127.910156 59.917969 128.078125 C 60.324219 128.246094 60.683594 128.488281 60.996094 128.796875 C 61.304688 129.109375 61.546875 129.46875 61.714844 129.875 C 61.882812 130.28125 61.96875 130.707031 61.96875 131.144531 C 61.96875 131.585938 61.882812 132.007812 61.714844 132.414062 C 61.546875 132.824219 61.304688 133.183594 60.996094 133.492188 C 60.683594 133.804688 60.324219 134.042969 59.917969 134.210938 C 59.511719 134.382812 59.085938 134.464844 58.648438 134.464844 L 44.121094 134.464844 L 44.121094 255.238281 L 122.800781 255.238281 Z M 122.800781 247.804688 " fill-opacity="1" fill-rule="nonzero"/></g><g clip-path="url(#33a4911a4c)"><path fill="#f4a261" d="M 172.914062 137.289062 L 172.117188 136.441406 C 171.839844 136.167969 171.515625 135.960938 171.15625 135.8125 C 170.792969 135.667969 170.417969 135.59375 170.027344 135.59375 C 169.636719 135.59375 169.261719 135.667969 168.898438 135.8125 C 168.535156 135.960938 168.214844 136.167969 167.933594 136.441406 L 120.660156 183.464844 L 118.335938 190.984375 L 125.839844 188.679688 L 173.113281 141.601562 C 173.667969 141.035156 173.933594 140.355469 173.910156 139.5625 C 173.9375 138.757812 173.671875 138.066406 173.113281 137.488281 C 173.015625 137.488281 172.964844 137.335938 172.914062 137.289062 Z M 176.765625 131.710938 L 177.664062 132.605469 L 177.8125 132.738281 C 178.71875 133.644531 179.417969 134.6875 179.910156 135.867188 C 180.402344 137.050781 180.648438 138.28125 180.652344 139.5625 C 180.652344 140.835938 180.40625 142.058594 179.914062 143.234375 C 179.421875 144.410156 178.722656 145.441406 177.8125 146.332031 L 130.074219 193.972656 C 129.664062 194.324219 129.203125 194.589844 128.695312 194.769531 L 114.304688 199.203125 C 113.65625 199.421875 113.007812 199.421875 112.363281 199.203125 C 111.941406 199.070312 111.5625 198.863281 111.222656 198.578125 C 110.886719 198.296875 110.613281 197.960938 110.410156 197.570312 C 110.207031 197.179688 110.085938 196.765625 110.046875 196.324219 C 110.007812 195.886719 110.054688 195.457031 110.1875 195.035156 L 114.503906 180.941406 C 114.621094 180.292969 114.921875 179.738281 115.398438 179.28125 L 163.136719 131.644531 C 164.054688 130.75 165.101562 130.066406 166.285156 129.582031 C 167.46875 129.101562 168.699219 128.855469 169.976562 128.855469 C 171.25 128.851562 172.472656 129.09375 173.648438 129.578125 C 174.824219 130.058594 175.863281 130.75 176.765625 131.644531 Z M 176.765625 131.710938 " fill-opacity="1" fill-rule="nonzero"/></g><path fill="#f4a261" d="M 167.222656 152.191406 L 157.3125 142.25 L 162.058594 137.570312 L 171.96875 147.460938 Z M 167.222656 152.191406 " fill-opacity="1" fill-rule="nonzero"/><path fill="#f4a261" d="M 70.648438 134.347656 C 70.207031 134.347656 69.785156 134.265625 69.378906 134.097656 C 68.972656 133.929688 68.613281 133.6875 68.300781 133.375 C 67.988281 133.066406 67.75 132.707031 67.582031 132.300781 C 67.414062 131.894531 67.328125 131.46875 67.328125 131.03125 C 67.328125 130.589844 67.414062 130.164062 67.582031 129.757812 C 67.75 129.351562 67.988281 128.992188 68.300781 128.683594 C 68.613281 128.371094 68.972656 128.128906 69.378906 127.960938 C 69.785156 127.792969 70.207031 127.710938 70.648438 127.710938 L 127.699219 127.710938 C 128.140625 127.710938 128.5625 127.792969 128.96875 127.960938 C 129.375 128.128906 129.734375 128.371094 130.046875 128.683594 C 130.359375 128.992188 130.597656 129.351562 130.765625 129.757812 C 130.933594 130.164062 131.019531 130.589844 131.019531 131.03125 C 131.019531 131.46875 130.933594 131.894531 130.765625 132.300781 C 130.597656 132.707031 130.359375 133.066406 130.046875 133.375 C 129.734375 133.6875 129.375 133.929688 128.96875 134.097656 C 128.5625 134.265625 128.140625 134.347656 127.699219 134.347656 Z M 70.648438 134.347656 " fill-opacity="1" fill-rule="nonzero"/><path fill="#f4a261" d="M 70.648438 146.367188 C 70.207031 146.367188 69.785156 146.28125 69.378906 146.113281 C 68.972656 145.945312 68.613281 145.707031 68.300781 145.394531 C 67.988281 145.082031 67.75 144.722656 67.582031 144.316406 C 67.414062 143.910156 67.328125 143.488281 67.328125 143.046875 C 67.328125 142.605469 67.414062 142.183594 67.582031 141.777344 C 67.75 141.371094 67.988281 141.011719 68.300781 140.699219 C 68.613281 140.386719 68.972656 140.148438 69.378906 139.980469 C 69.785156 139.8125 70.207031 139.726562 70.648438 139.726562 L 127.699219 139.726562 C 128.140625 139.726562 128.5625 139.8125 128.96875 139.980469 C 129.375 140.148438 129.734375 140.386719 130.046875 140.699219 C 130.359375 141.011719 130.597656 141.371094 130.765625 141.777344 C 130.933594 142.183594 131.019531 142.605469 131.019531 143.046875 C 131.019531 143.488281 130.933594 143.910156 130.765625 144.316406 C 130.597656 144.722656 130.359375 145.082031 130.046875 145.394531 C 129.734375 145.707031 129.375 145.945312 128.96875 146.113281 C 128.5625 146.28125 128.140625 146.367188 127.699219 146.367188 Z M 70.648438 146.367188 " fill-opacity="1" fill-rule="nonzero"/><path fill="#f4a261" d="M 70.648438 146.367188 C 70.207031 146.367188 69.785156 146.28125 69.378906 146.113281 C 68.972656 145.945312 68.613281 145.707031 68.300781 145.394531 C 67.988281 145.082031 67.75 144.722656 67.582031 144.316406 C 67.414062 143.910156 67.328125 143.488281 67.328125 143.046875 C 67.328125 142.605469 67.414062 142.183594 67.582031 141.777344 C 67.75 141.371094 67.988281 141.011719 68.300781 140.699219 C 68.613281 140.386719 68.972656 140.148438 69.378906 139.980469 C 69.785156 139.8125 70.207031 139.726562 70.648438 139.726562 L 127.699219 139.726562 C 128.140625 139.726562 128.5625 139.8125 128.96875 139.980469 C 129.375 140.148438 129.734375 140.386719 130.046875 140.699219 C 130.359375 141.011719 130.597656 141.371094 130.765625 141.777344 C 130.933594 142.183594 131.019531 142.605469 131.019531 143.046875 C 131.019531 143.488281 130.933594 143.910156 130.765625 144.316406 C 130.597656 144.722656 130.359375 145.082031 130.046875 145.394531 C 129.734375 145.707031 129.375 145.945312 128.96875 146.113281 C 128.5625 146.28125 128.140625 146.367188 127.699219 146.367188 Z M 70.648438 146.367188 " fill-opacity="1" fill-rule="nonzero"/><path fill="#f4a261" d="M 70.648438 158.914062 C 70.207031 158.914062 69.785156 158.832031 69.378906 158.664062 C 68.972656 158.496094 68.613281 158.253906 68.300781 157.945312 C 67.988281 157.632812 67.75 157.273438 67.582031 156.867188 C 67.414062 156.460938 67.328125 156.035156 67.328125 155.597656 C 67.328125 155.15625 67.414062 154.730469 67.582031 154.324219 C 67.75 153.917969 67.988281 153.558594 68.300781 153.25 C 68.613281 152.9375 68.972656 152.699219 69.378906 152.527344 C 69.785156 152.359375 70.207031 152.277344 70.648438 152.277344 L 127.699219 152.277344 C 128.140625 152.277344 128.5625 152.359375 128.96875 152.527344 C 129.375 152.699219 129.734375 152.9375 130.046875 153.25 C 130.359375 153.558594 130.597656 153.917969 130.765625 154.324219 C 130.933594 154.730469 131.019531 155.15625 131.019531 155.597656 C 131.019531 156.035156 130.933594 156.460938 130.765625 156.867188 C 130.597656 157.273438 130.359375 157.632812 130.046875 157.945312 C 129.734375 158.253906 129.375 158.496094 128.96875 158.664062 C 128.5625 158.832031 128.140625 158.914062 127.699219 158.914062 Z M 70.648438 158.914062 " fill-opacity="1" fill-rule="nonzero"/><path fill="#f4a261" d="M 70.648438 171.597656 C 70.207031 171.597656 69.785156 171.511719 69.378906 171.34375 C 68.972656 171.175781 68.613281 170.9375 68.300781 170.625 C 67.988281 170.3125 67.75 169.953125 67.582031 169.546875 C 67.414062 169.140625 67.328125 168.71875 67.328125 168.277344 C 67.328125 167.835938 67.414062 167.414062 67.582031 167.007812 C 67.75 166.601562 67.988281 166.242188 68.300781 165.929688 C 68.613281 165.617188 68.972656 165.378906 69.378906 165.210938 C 69.785156 165.042969 70.207031 164.957031 70.648438 164.957031 L 103.296875 164.957031 C 103.738281 164.957031 104.164062 165.042969 104.570312 165.210938 C 104.976562 165.378906 105.335938 165.617188 105.644531 165.929688 C 105.957031 166.242188 106.199219 166.601562 106.367188 167.007812 C 106.535156 167.414062 106.617188 167.835938 106.617188 168.277344 C 106.617188 168.71875 106.535156 169.140625 106.367188 169.546875 C 106.199219 169.953125 105.957031 170.3125 105.644531 170.625 C 105.335938 170.9375 104.976562 171.175781 104.570312 171.34375 C 104.164062 171.511719 103.738281 171.597656 103.296875 171.597656 Z M 70.648438 171.597656 " fill-opacity="1" fill-rule="nonzero"/><path fill="#f4a261" d="M 70.648438 184.03125 C 70.207031 184.03125 69.785156 183.945312 69.378906 183.777344 C 68.972656 183.609375 68.613281 183.367188 68.300781 183.058594 C 67.988281 182.746094 67.75 182.386719 67.582031 181.980469 C 67.414062 181.574219 67.328125 181.152344 67.328125 180.710938 C 67.328125 180.269531 67.414062 179.847656 67.582031 179.441406 C 67.75 179.03125 67.988281 178.675781 68.300781 178.363281 C 68.613281 178.050781 68.972656 177.8125 69.378906 177.644531 C 69.785156 177.476562 70.207031 177.390625 70.648438 177.390625 L 103.296875 177.390625 C 103.738281 177.390625 104.164062 177.476562 104.570312 177.644531 C 104.976562 177.8125 105.335938 178.050781 105.644531 178.363281 C 105.957031 178.675781 106.199219 179.03125 106.367188 179.441406 C 106.535156 179.847656 106.617188 180.269531 106.617188 180.710938 C 106.617188 181.152344 106.535156 181.574219 106.367188 181.980469 C 106.199219 182.386719 105.957031 182.746094 105.644531 183.058594 C 105.335938 183.367188 104.976562 183.609375 104.570312 183.777344 C 104.164062 183.945312 103.738281 184.03125 103.296875 184.03125 Z M 70.648438 184.03125 " fill-opacity="1" fill-rule="nonzero"/><path fill="#f4a261" d="M 70.648438 196.910156 C 70.207031 196.910156 69.785156 196.828125 69.378906 196.660156 C 68.972656 196.488281 68.613281 196.25 68.300781 195.9375 C 67.988281 195.628906 67.75 195.269531 67.582031 194.863281 C 67.414062 194.453125 67.328125 194.03125 67.328125 193.589844 C 67.328125 193.152344 67.414062 192.726562 67.582031 192.320312 C 67.75 191.914062 67.988281 191.554688 68.300781 191.242188 C 68.613281 190.933594 68.972656 190.691406 69.378906 190.523438 C 69.785156 190.355469 70.207031 190.269531 70.648438 190.269531 L 103.296875 190.269531 C 103.738281 190.269531 104.164062 190.355469 104.570312 190.523438 C 104.976562 190.691406 105.335938 190.933594 105.644531 191.242188 C 105.957031 191.554688 106.199219 191.914062 106.367188 192.320312 C 106.535156 192.726562 106.617188 193.152344 106.617188 193.589844 C 106.617188 194.03125 106.535156 194.453125 106.367188 194.863281 C 106.199219 195.269531 105.957031 195.628906 105.644531 195.9375 C 105.335938 196.25 104.976562 196.488281 104.570312 196.660156 C 104.164062 196.828125 103.738281 196.910156 103.296875 196.910156 Z M 70.648438 196.910156 " fill-opacity="1" fill-rule="nonzero"/><g clip-path="url(#4a30a80be8)"><path fill="#f4a261" d="M 348.921875 184.058594 L 344.5 179.632812 L 342.046875 152.640625 C 341.984375 151.980469 341.671875 151.375 341.171875 150.945312 L 340.199219 150.109375 L 341.386719 140.601562 C 341.867188 136.753906 341.289062 132.851562 339.714844 129.3125 L 333.84375 116.105469 C 333.046875 114.308594 331.328125 113.179688 329.359375 113.160156 L 329.308594 113.160156 C 327.363281 113.160156 325.644531 114.253906 324.820312 116.023438 L 317.839844 130.96875 C 306.761719 122.957031 292.0625 121.433594 279.492188 127.226562 L 268.269531 132.414062 L 233.445312 122.472656 C 231.390625 122.078125 229.234375 122.554688 227.53125 123.792969 C 225.828125 125.03125 224.707031 126.9375 224.449219 129.074219 L 222.824219 145.003906 C 222.722656 145.980469 223.199219 146.929688 224.042969 147.433594 L 257.085938 167.257812 L 227.1875 175.796875 C 227.144531 175.8125 227.109375 175.847656 227.066406 175.863281 C 227.019531 175.878906 226.976562 175.871094 226.929688 175.886719 C 226.808594 175.9375 226.730469 176.03125 226.621094 176.09375 C 226.472656 176.179688 226.324219 176.257812 226.203125 176.371094 C 226.078125 176.484375 225.992188 176.609375 225.890625 176.738281 C 225.792969 176.871094 225.695312 176.992188 225.625 177.140625 C 225.550781 177.289062 225.515625 177.441406 225.476562 177.59375 C 225.433594 177.753906 225.386719 177.902344 225.378906 178.066406 C 225.363281 178.234375 225.394531 178.398438 225.417969 178.570312 C 225.433594 178.691406 225.414062 178.8125 225.445312 178.933594 C 225.460938 178.984375 225.492188 179.027344 225.511719 179.074219 C 225.523438 179.113281 225.519531 179.15625 225.535156 179.191406 L 227.859375 184.902344 C 229.894531 189.910156 234.691406 193.359375 240.054688 193.695312 L 261.234375 195.273438 C 266.234375 195.644531 270.644531 198.707031 272.746094 203.253906 L 299.15625 260.484375 C 299.585938 261.410156 300.503906 261.957031 301.464844 261.957031 C 301.820312 261.957031 302.179688 261.882812 302.523438 261.722656 C 303.796875 261.136719 304.351562 259.628906 303.765625 258.355469 L 277.351562 201.128906 C 274.480469 194.90625 268.453125 190.722656 261.613281 190.210938 L 240.402344 188.632812 C 236.941406 188.414062 233.867188 186.199219 232.5625 182.988281 L 231.304688 179.898438 L 264.105469 170.527344 C 265.078125 170.25 265.792969 169.417969 265.921875 168.417969 C 266.054688 167.414062 265.582031 166.433594 264.714844 165.914062 L 228.042969 143.914062 L 228.71875 137.285156 C 229.0625 137.308594 229.410156 137.335938 229.75 137.335938 C 234.777344 137.335938 239.367188 134.546875 241.660156 130.085938 L 267.789062 137.550781 C 268.375 137.714844 269 137.667969 269.546875 137.414062 L 281.621094 131.832031 C 292.824219 126.667969 305.96875 128.210938 315.652344 135.660156 L 309.3125 149.257812 C 308.722656 150.53125 309.269531 152.039062 310.539062 152.632812 C 310.886719 152.789062 311.25 152.871094 311.613281 152.871094 C 312.566406 152.871094 313.480469 152.328125 313.914062 151.40625 L 321.09375 136.007812 L 329.214844 118.167969 L 335.082031 131.375 C 336.277344 134.070312 336.71875 137.042969 336.355469 139.972656 L 334.996094 150.832031 L 331.929688 175.390625 C 331.753906 176.78125 332.738281 178.050781 334.128906 178.222656 C 334.238281 178.234375 334.34375 178.242188 334.445312 178.242188 C 335.707031 178.242188 336.800781 177.304688 336.960938 176.019531 L 338.183594 166.230469 L 339.527344 181.011719 C 339.539062 181.148438 339.601562 181.261719 339.636719 181.386719 C 339.671875 181.535156 339.695312 181.675781 339.757812 181.816406 C 339.84375 182.007812 339.972656 182.167969 340.101562 182.332031 C 340.164062 182.40625 340.191406 182.5 340.261719 182.570312 L 345.335938 187.644531 C 345.832031 188.140625 346.480469 188.386719 347.128906 188.386719 C 347.777344 188.386719 348.429688 188.140625 348.921875 187.644531 C 349.914062 186.652344 349.914062 185.046875 348.921875 184.058594 Z M 229.234375 132.21875 L 229.496094 129.632812 C 229.582031 128.929688 229.945312 128.3125 230.523438 127.894531 C 231.09375 127.472656 231.78125 127.316406 232.269531 127.402344 L 236.589844 128.636719 C 234.960938 131.007812 232.210938 132.390625 229.234375 132.214844 Z M 288.777344 140.183594 C 291.582031 140.183594 293.851562 142.457031 293.851562 145.257812 C 293.851562 148.0625 291.582031 150.332031 288.777344 150.332031 C 285.976562 150.332031 283.703125 148.0625 283.703125 145.257812 C 283.703125 142.457031 285.976562 140.183594 288.777344 140.183594 Z M 200.347656 136.339844 C 201.066406 135.136719 202.621094 134.75 203.828125 135.472656 L 216.511719 143.082031 C 217.714844 143.800781 218.101562 145.359375 217.382812 146.5625 C 216.90625 147.355469 216.066406 147.792969 215.207031 147.792969 C 214.761719 147.792969 214.3125 147.675781 213.902344 147.429688 L 201.21875 139.820312 C 200.015625 139.097656 199.625 137.542969 200.347656 136.339844 Z M 212.667969 160.480469 L 199.984375 160.480469 C 198.582031 160.480469 197.449219 159.347656 197.449219 157.945312 C 197.449219 156.539062 198.582031 155.40625 199.984375 155.40625 L 212.667969 155.40625 C 214.070312 155.40625 215.207031 156.539062 215.207031 157.945312 C 215.207031 159.347656 214.070312 160.480469 212.667969 160.480469 Z M 219.722656 166.503906 C 220.601562 167.601562 220.421875 169.199219 219.328125 170.074219 L 206.644531 180.222656 C 206.175781 180.59375 205.617188 180.777344 205.0625 180.777344 C 204.316406 180.777344 203.578125 180.453125 203.078125 179.824219 C 202.203125 178.730469 202.382812 177.132812 203.476562 176.257812 L 216.160156 166.109375 C 217.253906 165.230469 218.851562 165.414062 219.722656 166.503906 Z M 219.722656 166.503906 " fill-opacity="1" fill-rule="nonzero"/></g></svg>