<?xml version="1.0" encoding="UTF-8"?>
<svg width="1200pt" height="1200pt" version="1.1" viewBox="0 0 1200 1200" xmlns="http://www.w3.org/2000/svg">
 <path d="m941.86 864.66-60.938 35.156-257.72 257.68c-6.6562 6.6562-17.438 6.6562-24.094 0l-556.6-556.6c-6.6562-6.6562-6.6562-17.438 0-24.094l138-138-27.375-47.391c-4.6875-8.1562-1.875-18.516 6.2344-23.156l169.13-97.641-18.516-69.188c-2.4375-9.0938 2.9531-18.422 12.047-20.859l180.42-48.328v-77.672c0-9.4219 7.6406-17.062 17.062-17.062h488.81c4.7812 0 9.0469 1.9688 12.141 5.0625l137.06 137.06c3.7969 3.7969 5.1562 8.2969 4.9219 13.5v648.61c0 9.375-7.5938 17.062-16.969 17.062h-181.74zm-345.28-207.47h299.34c9.4219 0 17.062-7.6406 17.062-17.062s-7.6406-17.062-17.062-17.062h-299.34c-9.4219 0-17.062 7.6406-17.062 17.062s7.6406 17.062 17.062 17.062zm365.26 0h106.55c9.4219 0 17.062-7.6406 17.062-17.062s-7.6406-17.062-17.062-17.062h-106.55c-9.4219 0-17.062 7.6406-17.062 17.062s7.6406 17.062 17.062 17.062zm-365.26 89.625h471.79c9.4219 0 17.062-7.6406 17.062-17.062s-7.6406-17.062-17.062-17.062h-471.79c-9.4219 0-17.062 7.6406-17.062 17.062s7.6406 17.062 17.062 17.062zm103.03-323.44-13.172 13.172h-89.859c-9.4219 0-17.062 7.6406-17.062 17.062v96.891c0 9.4219 7.6406 17.062 17.062 17.062h96.891c9.4219 0 17.062-7.6406 17.062-17.062v-89.859l13.172-13.172c6.6562-6.6562 6.6562-17.438 0-24.094s-17.438-6.6562-24.094 0zm-23.156 71.344-19.359 19.359c-6.6562 6.6562-17.438 6.6562-24.094 0s-6.6562-17.438 0-24.094l19.359-19.359h-38.719v62.812h62.812zm98.906 49.312h126.56c9.4219 0 17.062-7.6406 17.062-17.062s-7.6406-17.062-17.062-17.062h-126.56c-9.4219 0-17.062 7.6406-17.062 17.062s7.6406 17.062 17.062 17.062zm0-59.109h279.98c9.4219 0 17.062-7.6406 17.062-17.062s-7.6406-17.062-17.062-17.062h-279.98c-9.4219 0-17.062 7.6406-17.062 17.062s7.6406 17.062 17.062 17.062zm-178.74-122.11h299.34c9.4219 0 17.062-7.6406 17.062-17.062s-7.6406-17.062-17.062-17.062h-299.34c-9.4219 0-17.062 7.6406-17.062 17.062s7.6406 17.062 17.062 17.062zm365.26 0h106.55c9.4219 0 17.062-7.6406 17.062-17.062s-7.6406-17.062-17.062-17.062h-106.55c-9.4219 0-17.062 7.6406-17.062 17.062s7.6406 17.062 17.062 17.062zm-365.26-89.625h471.79c9.4219 0 17.062-7.6406 17.062-17.062s-7.6406-17.062-17.062-17.062h-471.79c-9.4219 0-17.062 7.6406-17.062 17.062s7.6406 17.062 17.062 17.062zm0-89.625h91.125c9.4219 0 17.062-7.6406 17.062-17.062s-7.6406-17.062-17.062-17.062h-91.125c-9.4219 0-17.062 7.6406-17.062 17.062s7.6406 17.062 17.062 17.062zm158.02 0h177.94c9.4219 0 17.062-7.6406 17.062-17.062s-7.6406-17.062-17.062-17.062h-177.94c-9.4219 0-17.062 7.6406-17.062 17.062s7.6406 17.062 17.062 17.062zm373.87 25.172h-120.14c-9.4219 0-17.062-7.6406-17.062-17.062v-120.1h-454.74v753.1h591.94zm-24.188-34.078-78.938-78.938v78.938zm-601.87-7.2188-155.21 41.578 155.21 579.14zm18.938 691.36 20.812 77.719 289.97-77.719h-310.82zm-183.74-554.29-146.58 84.656 315.89 547.08-169.26-631.74zm191.26 669.84 38.766 67.125 247.26-142.78-280.36 75.141c-1.875 0.51562-3.7969 0.65625-5.6719 0.51562zm-330.74-504.98-119.48 119.48 445.97 445.97zm371.34 610.31 41.719 41.719 155.68-155.68-196.87 113.67c-0.1875 0.09375-0.32813 0.1875-0.51563 0.28125z" fill="#f4a261" fill-rule="evenodd"/>
</svg>
