<?xml version="1.0" encoding="UTF-8"?>
<svg width="1200pt" height="1200pt" version="1.1" viewBox="0 0 1200 1200" xmlns="http://www.w3.org/2000/svg">
 <path d="m255.61 1007s-99.371-340.84 331.2-416.75c0 0 368.48-48.852 365.83 416.75 0 0-26.664 151.92-174.41 70.727 0 0-85.32-116-204.76-82.523 0 0-89.891 30.395-149.05 128.36 0 0.003906-116.21 115.86-168.82-116.57z" fill="#f4a261"/>
 <path d="m571.09 260.43c-15.742 108.89-42.312 206.15-125.35 216.66-83.027 10.5-161.53-69.504-175.34-178.67-13.801-109.15 42.312-206.15 125.36-216.66 83.027-10.5 194.87 43.449 175.33 178.67z" fill="#f4a261"/>
 <path d="m939.25 278.96c0 119.55-70.43 216.47-157.29 216.47s-152.14-109.99-157.29-216.47c-5.7969-119.43 70.43-216.48 157.29-216.48s157.29 96.91 157.29 216.48z" fill="#f4a261"/>
 <path d="m1180.4 554.07c0 93.312-63.625 141.45-136 168.98-70.223 26.711-136.01-75.672-136.01-168.98s62.172-155.28 136.01-168.98c80.906-15.012 136 75.676 136 168.98z" fill="#f4a261"/>
 <path d="m27.816 554.07c0 93.312 63.625 141.45 136.01 168.98 70.211 26.711 136.01-75.672 136.01-168.98s-62.172-155.28-136.01-168.98c-80.891-15.012-136.01 75.676-136.01 168.98z" fill="#f4a261"/>
</svg>
